<svg xmlns="http://www.w3.org/2000/svg" width="13.877" height="20" viewBox="0 0 13.877 20">
  <g id="building" transform="translate(-4.847)">
    <path id="Path_4155" data-name="Path 4155" d="M9.019,20V16.286h5.535V20h4.171V0H4.847V20ZM14.553,1.837h2.334V4.172H14.553Zm0,3.393h2.334V7.566H14.553Zm0,3.394h2.334v2.334H14.553Zm0,3.393h2.334v2.336H14.553ZM10.619,1.837h2.335V4.172H10.619Zm0,3.393h2.335V7.566H10.619Zm0,3.394h2.335v2.334H10.619Zm0,3.393h2.335v2.336H10.619ZM6.685,1.837H9.019V4.172H6.685Zm0,3.393H9.019V7.566H6.685Zm0,3.394H9.019v2.334H6.685Zm0,3.393H9.019v2.336H6.685Z" transform="translate(0)" fill="#fff"/>
  </g>
</svg>
