<svg xmlns="http://www.w3.org/2000/svg" width="16.542" height="16.048" viewBox="0 0 16.542 16.048">
  <g id="Group_8475" data-name="Group 8475" transform="translate(-725.405 -2320)">
    <path id="Union_1" data-name="Union 1" d="M9.925,12.634a3.31,3.31,0,1,1,3.309,3.414A3.363,3.363,0,0,1,9.925,12.634ZM0,12.634A3.363,3.363,0,0,1,3.308,9.219a3.416,3.416,0,0,1,0,6.829A3.363,3.363,0,0,1,0,12.634ZM9.925,3.415a3.31,3.31,0,1,1,6.617,0,3.31,3.31,0,1,1-6.617,0ZM0,3.415A3.363,3.363,0,0,1,3.308,0,3.362,3.362,0,0,1,6.617,3.415,3.362,3.362,0,0,1,3.308,6.829,3.363,3.363,0,0,1,0,3.415Z" transform="translate(725.405 2320)" fill="#fff"/>
  </g>
</svg>
