<svg id="hotel" xmlns="http://www.w3.org/2000/svg" width="17.333" height="17.333" viewBox="0 0 17.333 17.333">
  <path id="Path_4159" data-name="Path 4159" d="M226,390h2.031v4.13H226Z" transform="translate(-218.349 -376.797)" fill="#fff"/>
  <path id="Path_4160" data-name="Path 4160" d="M121.023,17.333h2.538V12.188h4.063v5.146h2.55V0h-9.151Zm7.109-15.3h1.016V3.047h-1.016Zm0,2.031h1.016V5.078h-1.016Zm0,2.031h1.016V7.109h-1.016Zm0,2.031h1.016V9.141h-1.016Zm0,2.031h1.016v1.016h-1.016ZM126.1,2.031h1.016V3.047H126.1Zm0,2.031h1.016V5.078H126.1Zm0,2.031h1.016V7.109H126.1Zm0,2.031h1.016V9.141H126.1Zm0,2.031h1.016v1.016H126.1Zm-2.031-8.125h1.016V3.047h-1.016Zm0,2.031h1.016V5.078h-1.016Zm0,2.031h1.016V7.109h-1.016Zm0,2.031h1.016V9.141h-1.016Zm0,2.031h1.016v1.016h-1.016Zm-2.031-8.125h1.016V3.047h-1.016Zm0,2.031h1.016V5.078h-1.016Zm0,2.031h1.016V7.109h-1.016Zm0,2.031h1.016V9.141h-1.016Zm0,2.031h1.016v1.016h-1.016Z" transform="translate(-116.926)" fill="#fff"/>
  <path id="Path_4161" data-name="Path 4161" d="M420.637,120h3.093v13.271h-3.093Z" transform="translate(-406.397 -115.938)" fill="#fff"/>
  <path id="Path_4162" data-name="Path 4162" d="M0,120H3.081v13.271H0Z" transform="translate(0 -115.938)" fill="#fff"/>
</svg>
