<svg xmlns="http://www.w3.org/2000/svg" width="20.858" height="18.54" viewBox="0 0 20.858 18.54">
  <path id="Icon_metro-users" data-name="Icon metro-users" d="M16.477,19.1V18.14a5.175,5.175,0,0,0,2.318-4.306c0-2.88,0-5.214-3.476-5.214s-3.476,2.335-3.476,5.214a5.175,5.175,0,0,0,2.318,4.306V19.1c-3.931.321-6.953,2.253-6.953,4.588H23.429c0-2.335-3.022-4.266-6.953-4.588ZM8.5,19.543a11.009,11.009,0,0,1,3.617-1.456,6.537,6.537,0,0,1-.733-1.069,6.635,6.635,0,0,1-.842-3.185A10.288,10.288,0,0,1,11.092,9.6a3.773,3.773,0,0,1,2.883-2.163c-.306-1.385-1.121-2.295-3.292-2.295-3.476,0-3.476,2.335-3.476,5.214a5.175,5.175,0,0,0,2.318,4.306v.956c-3.931.321-6.953,2.253-6.953,4.588H7.623a7.422,7.422,0,0,1,.873-.664Z" transform="translate(-2.571 -5.143)" fill="#fff"/>
</svg>
