<svg xmlns="http://www.w3.org/2000/svg" width="18" height="12.6" viewBox="0 0 18 12.6">
  <path id="Icon_awesome-users" data-name="Icon awesome-users" d="M2.7,7.65A1.8,1.8,0,1,0,.9,5.85,1.8,1.8,0,0,0,2.7,7.65Zm12.6,0a1.8,1.8,0,1,0-1.8-1.8A1.8,1.8,0,0,0,15.3,7.65Zm.9.9H14.4a1.8,1.8,0,0,0-1.268.523,4.114,4.114,0,0,1,2.112,3.077H17.1a.9.9,0,0,0,.9-.9v-.9A1.8,1.8,0,0,0,16.2,8.55ZM9,8.55A3.15,3.15,0,1,0,5.85,5.4,3.148,3.148,0,0,0,9,8.55Zm2.16.9h-.233a4.349,4.349,0,0,1-3.853,0H6.84A3.241,3.241,0,0,0,3.6,12.69v.81a1.35,1.35,0,0,0,1.35,1.35h8.1A1.35,1.35,0,0,0,14.4,13.5v-.81A3.241,3.241,0,0,0,11.16,9.45ZM4.868,9.073A1.8,1.8,0,0,0,3.6,8.55H1.8A1.8,1.8,0,0,0,0,10.35v.9a.9.9,0,0,0,.9.9H2.753A4.124,4.124,0,0,1,4.868,9.073Z" transform="translate(0 -2.25)" fill="#fff"/>
</svg>
