<svg id="newspaper" xmlns="http://www.w3.org/2000/svg" width="18.868" height="18.867" viewBox="0 0 18.868 18.867">
  <g id="Group_11114" data-name="Group 11114">
    <path id="Path_4155" data-name="Path 4155" d="M18.194,4.717H14.824V.674A.674.674,0,0,0,14.151,0H.674A.674.674,0,0,0,0,.674v15.5a2.7,2.7,0,0,0,2.7,2.7H16.172a2.7,2.7,0,0,0,2.7-2.7V5.391A.674.674,0,0,0,18.194,4.717ZM5.391,3.369H9.434a.674.674,0,0,1,0,1.348H5.391a.674.674,0,1,1,0-1.348Zm6.065,12.8H3.369a.674.674,0,1,1,0-1.348h8.086a.674.674,0,0,1,0,1.348Zm0-2.7H3.369a.674.674,0,0,1,0-1.348h8.086a.674.674,0,0,1,0,1.348Zm0-2.7H3.369a.674.674,0,1,1,0-1.348h8.086a.674.674,0,1,1,0,1.348Zm0-2.7H3.369a.674.674,0,0,1,0-1.348h8.086a.674.674,0,0,1,0,1.348Zm6.065,8.086a1.348,1.348,0,0,1-2.7,0V6.065h2.7V16.172Z" fill="#fff"/>
  </g>
</svg>
