<svg xmlns="http://www.w3.org/2000/svg" width="17" height="12.352" viewBox="0 0 17 12.352">
  <path id="Path_4156" data-name="Path 4156" d="M11.22,77.013A8.541,8.541,0,0,0,0,85.383a13.928,13.928,0,0,0,.34,3.172.373.373,0,0,0,.34.352H16.235c.17,0,.34-.176.425-.352A21.264,21.264,0,0,0,17,85.383,8.711,8.711,0,0,0,11.22,77.013ZM8.5,78.334a.882.882,0,1,1-.85.881A.818.818,0,0,1,8.5,78.334ZM2.55,86.264a.882.882,0,0,1,0-1.762.882.882,0,0,1,0,1.762Zm2.38-4.581a.8.8,0,0,1-1.19,0,1.1,1.1,0,0,1-.085-1.322.8.8,0,0,1,1.19,0A1.1,1.1,0,0,1,4.93,81.682ZM8.5,87.145a1.505,1.505,0,0,1-1.53-1.762c.255-.881,1.53-3.524,1.53-3.524s1.275,2.643,1.53,3.524A1.505,1.505,0,0,1,8.5,87.145Zm4.845-5.463a.8.8,0,0,1-1.19,0,.873.873,0,0,1,0-1.233.8.8,0,0,1,1.19,0A1.088,1.088,0,0,1,13.345,81.682Zm1.1,4.581a.882.882,0,1,1,.85-.881A.818.818,0,0,1,14.45,86.264Z" transform="translate(0 -76.555)" fill="#fff"/>
</svg>
