<svg xmlns="http://www.w3.org/2000/svg" width="18" height="20.112" viewBox="0 0 18 20.112">
  <path id="Path_4168" data-name="Path 4168" d="M73.824,67.3v.665a3.4,3.4,0,0,1-3.392,3.392H61.568a3.4,3.4,0,0,1-3.392-3.392V67.3A3.39,3.39,0,0,0,57,69.862V84.018a3.4,3.4,0,0,0,3.392,3.392H71.608A3.4,3.4,0,0,0,75,84.018V69.862A3.39,3.39,0,0,0,73.824,67.3ZM62.934,81.584a.678.678,0,1,1-1.1.789l-.352-.494-.352.494a.678.678,0,0,1-1.1-.789l.623-.872-.623-.872a.678.678,0,0,1,1.1-.789l.352.493.352-.494a.678.678,0,0,1,1.1.789l-.623.872Zm.692-6.764-1.809,2.166a.678.678,0,0,1-1.127-.131l-.724-1.444a.678.678,0,0,1,1.213-.608l.26.519,1.146-1.372a.678.678,0,0,1,1.041.87Zm7.8,6.628h-3.98a.678.678,0,0,1,0-1.357h3.98a.678.678,0,0,1,0,1.357Zm0-5.3h-3.98a.678.678,0,0,1,0-1.357h3.98a.678.678,0,0,1,0,1.357Z" transform="translate(-57 -67.298)" fill="#fff"/>
</svg>
