<svg id="presentation" xmlns="http://www.w3.org/2000/svg" width="17.952" height="17.952" viewBox="0 0 17.952 17.952">
  <path id="Path_4163" data-name="Path 4163" d="M17.426,0H.526A.526.526,0,0,0,0,.526V1.753a.526.526,0,0,0,.526.526h16.9a.526.526,0,0,0,.526-.526V.526A.526.526,0,0,0,17.426,0Z" fill="#fff"/>
  <path id="Path_4164" data-name="Path 4164" d="M122.132,221.074a2.135,2.135,0,0,0,2.066-1.606h-2.066a.526.526,0,0,1-.526-.526v-2.066a2.132,2.132,0,0,0,.526,4.2Z" transform="translate(-115.792 -209.272)" fill="#fff"/>
  <path id="Path_4165" data-name="Path 4165" d="M195.8,216.876v1.54h1.54A2.14,2.14,0,0,0,195.8,216.876Z" transform="translate(-188.934 -209.272)" fill="#fff"/>
  <path id="Path_4166" data-name="Path 4166" d="M30,105.94a.526.526,0,0,0,.526.526H37.4v2.1h-.526a.526.526,0,0,0,0,1.052h2.1a.526.526,0,0,0,0-1.052H38.45v-2.1h6.872a.526.526,0,0,0,.526-.526V95H30Zm13.219-1.971h-3.17a.526.526,0,1,1,0-1.052h3.17a.526.526,0,1,1,0,1.052Zm0-2.1h-3.17a.526.526,0,1,1,0-1.052h3.17a.526.526,0,1,1,0,1.052Zm.526-2.63a.526.526,0,0,1-.526.526h-3.17a.526.526,0,0,1,0-1.052h3.17A.526.526,0,0,1,43.745,99.236Zm-9.172-3.184h6.7a.526.526,0,1,1,0,1.052h-6.7a.526.526,0,1,1,0-1.052Zm.715,2.1a3.184,3.184,0,1,1-3.184,3.184A3.187,3.187,0,0,1,35.287,98.156Z" transform="translate(-28.948 -91.669)" fill="#fff"/>
</svg>
